<svg width="300" height="240" viewBox="0 0 300 240" fill="none" xmlns="http://www.w3.org/2000/svg">
<path d="M240.669 54.1535C238.493 45.9584 232.08 39.5043 223.937 37.314C209.18 33.3333 150 33.3333 150 33.3333C150 33.3333 90.8204 33.3333 76.0623 37.314C67.9188 39.5043 61.5051 45.9584 59.33 54.1535C55.376 69.0076 55.376 100 55.376 100C55.376 100 55.376 130.992 59.33 145.847C61.5051 154.043 67.9188 160.496 76.0615 162.688C90.8196 166.667 149.999 166.667 149.999 166.667C149.999 166.667 209.179 166.667 223.936 162.688C232.08 160.496 238.492 154.043 240.668 145.848C244.623 130.992 244.623 100.001 244.623 100.001C244.623 100.001 244.623 69.0084 240.668 54.1543" fill="#FF0000"/>
<path d="M130.645 128.139L180.107 100.002L130.645 71.8616V128.139Z" fill="white"/>
<path d="M48.2912 181.364V225H40.3224L21.3381 197.536H21.0185V225H11.7926V181.364H19.8892L38.7244 208.807H39.108V181.364H48.2912ZM70.658 225.639C67.2915 225.639 64.3938 224.957 61.9648 223.594C59.5501 222.216 57.6893 220.27 56.3825 217.756C55.0756 215.227 54.4222 212.237 54.4222 208.786C54.4222 205.419 55.0756 202.464 56.3825 199.922C57.6893 197.379 59.5288 195.398 61.9009 193.977C64.2873 192.557 67.0856 191.847 70.2958 191.847C72.4549 191.847 74.4648 192.195 76.3256 192.891C78.2006 193.572 79.8342 194.602 81.2262 195.98C82.6325 197.358 83.7262 199.091 84.5075 201.179C85.2887 203.253 85.6793 205.682 85.6793 208.466V210.959H58.0444V205.334H77.1353C77.1353 204.027 76.8512 202.869 76.283 201.861C75.7148 200.852 74.9265 200.064 73.918 199.496C72.9237 198.913 71.766 198.622 70.445 198.622C69.0671 198.622 67.8455 198.942 66.7802 199.581C65.729 200.206 64.9052 201.051 64.3086 202.116C63.712 203.168 63.4066 204.339 63.3924 205.632V210.98C63.3924 212.599 63.6907 213.999 64.2873 215.178C64.8981 216.357 65.7575 217.266 66.8654 217.905C67.9734 218.544 69.2873 218.864 70.8072 218.864C71.8157 218.864 72.739 218.722 73.5771 218.438C74.4151 218.153 75.1325 217.727 75.729 217.159C76.3256 216.591 76.7802 215.895 77.0927 215.071L85.4876 215.625C85.0614 217.642 84.1879 219.403 82.8668 220.909C81.56 222.401 79.8697 223.565 77.7958 224.403C75.7362 225.227 73.3569 225.639 70.658 225.639ZM100.935 225.618C98.8469 225.618 96.9862 225.256 95.3526 224.531C93.7191 223.793 92.4265 222.706 91.4748 221.271C90.5373 219.822 90.0685 218.018 90.0685 215.859C90.0685 214.041 90.4023 212.514 91.07 211.278C91.7376 210.043 92.6467 209.048 93.7972 208.295C94.9478 207.543 96.2546 206.974 97.7177 206.591C99.195 206.207 100.743 205.938 102.363 205.781C104.266 205.582 105.8 205.398 106.965 205.227C108.13 205.043 108.975 204.773 109.5 204.418C110.026 204.062 110.289 203.537 110.289 202.841V202.713C110.289 201.364 109.863 200.32 109.01 199.581C108.172 198.842 106.979 198.473 105.431 198.473C103.797 198.473 102.498 198.835 101.532 199.56C100.566 200.27 99.9265 201.165 99.614 202.244L91.2191 201.562C91.6452 199.574 92.4833 197.855 93.7333 196.406C94.9833 194.943 96.5955 193.821 98.57 193.04C100.559 192.244 102.86 191.847 105.473 191.847C107.292 191.847 109.032 192.06 110.694 192.486C112.37 192.912 113.854 193.572 115.147 194.467C116.453 195.362 117.483 196.513 118.236 197.919C118.989 199.311 119.365 200.98 119.365 202.926V225H110.757V220.462H110.502C109.976 221.484 109.273 222.386 108.392 223.168C107.512 223.935 106.453 224.538 105.218 224.979C103.982 225.405 102.554 225.618 100.935 225.618ZM103.534 219.354C104.87 219.354 106.049 219.091 107.071 218.565C108.094 218.026 108.897 217.301 109.479 216.392C110.061 215.483 110.353 214.453 110.353 213.303V209.83C110.069 210.014 109.678 210.185 109.181 210.341C108.698 210.483 108.151 210.618 107.54 210.746C106.929 210.859 106.319 210.966 105.708 211.065C105.097 211.151 104.543 211.229 104.046 211.3C102.98 211.456 102.05 211.705 101.255 212.045C100.459 212.386 99.8413 212.848 99.4009 213.43C98.9606 213.999 98.7404 214.709 98.7404 215.561C98.7404 216.797 99.1879 217.741 100.083 218.395C100.992 219.034 102.142 219.354 103.534 219.354ZM126.407 225V192.273H135.207V197.983H135.548C136.145 195.952 137.146 194.418 138.552 193.381C139.958 192.33 141.578 191.804 143.41 191.804C143.865 191.804 144.355 191.832 144.88 191.889C145.406 191.946 145.868 192.024 146.265 192.124V200.178C145.839 200.05 145.25 199.936 144.497 199.837C143.744 199.737 143.055 199.688 142.43 199.688C141.095 199.688 139.902 199.979 138.85 200.561C137.814 201.129 136.99 201.925 136.379 202.947C135.782 203.97 135.484 205.149 135.484 206.484V225H126.407ZM146.068 188.97V181.364H181.906V188.97H168.547V225H159.428V188.97H146.068ZM204.172 211.065V192.273H213.249V225H204.534V219.055H204.193C203.455 220.973 202.226 222.514 200.507 223.679C198.803 224.844 196.722 225.426 194.264 225.426C192.077 225.426 190.152 224.929 188.49 223.935C186.828 222.94 185.528 221.527 184.591 219.695C183.668 217.862 183.199 215.668 183.185 213.111V192.273H192.261V211.491C192.276 213.423 192.794 214.95 193.817 216.072C194.839 217.195 196.21 217.756 197.929 217.756C199.023 217.756 200.045 217.507 200.997 217.01C201.949 216.499 202.716 215.746 203.298 214.751C203.895 213.757 204.186 212.528 204.172 211.065ZM220.679 225V181.364H229.756V197.77H230.033C230.431 196.889 231.006 195.994 231.759 195.085C232.526 194.162 233.52 193.395 234.742 192.784C235.978 192.159 237.512 191.847 239.344 191.847C241.73 191.847 243.932 192.472 245.949 193.722C247.966 194.957 249.578 196.825 250.786 199.325C251.993 201.811 252.597 204.929 252.597 208.679C252.597 212.33 252.007 215.412 250.828 217.926C249.664 220.426 248.073 222.322 246.056 223.615C244.053 224.893 241.809 225.533 239.323 225.533C237.561 225.533 236.063 225.241 234.827 224.659C233.605 224.077 232.604 223.345 231.823 222.464C231.042 221.57 230.445 220.668 230.033 219.759H229.628V225H220.679ZM229.564 208.636C229.564 210.582 229.834 212.28 230.374 213.729C230.914 215.178 231.695 216.307 232.718 217.116C233.74 217.912 234.983 218.31 236.446 218.31C237.924 218.31 239.174 217.905 240.196 217.095C241.219 216.271 241.993 215.135 242.519 213.686C243.059 212.223 243.328 210.54 243.328 208.636C243.328 206.747 243.066 205.085 242.54 203.651C242.015 202.216 241.24 201.094 240.218 200.284C239.195 199.474 237.938 199.07 236.446 199.07C234.969 199.07 233.719 199.46 232.696 200.241C231.688 201.023 230.914 202.131 230.374 203.565C229.834 205 229.564 206.69 229.564 208.636ZM273.568 225.639C270.202 225.639 267.304 224.957 264.875 223.594C262.46 222.216 260.599 220.27 259.293 217.756C257.986 215.227 257.332 212.237 257.332 208.786C257.332 205.419 257.986 202.464 259.293 199.922C260.599 197.379 262.439 195.398 264.811 193.977C267.197 192.557 269.996 191.847 273.206 191.847C275.365 191.847 277.375 192.195 279.236 192.891C281.111 193.572 282.744 194.602 284.136 195.98C285.543 197.358 286.636 199.091 287.418 201.179C288.199 203.253 288.589 205.682 288.589 208.466V210.959H260.955V205.334H280.045C280.045 204.027 279.761 202.869 279.193 201.861C278.625 200.852 277.837 200.064 276.828 199.496C275.834 198.913 274.676 198.622 273.355 198.622C271.977 198.622 270.756 198.942 269.69 199.581C268.639 200.206 267.815 201.051 267.219 202.116C266.622 203.168 266.317 204.339 266.303 205.632V210.98C266.303 212.599 266.601 213.999 267.197 215.178C267.808 216.357 268.668 217.266 269.776 217.905C270.884 218.544 272.197 218.864 273.717 218.864C274.726 218.864 275.649 218.722 276.487 218.438C277.325 218.153 278.043 217.727 278.639 217.159C279.236 216.591 279.69 215.895 280.003 215.071L288.398 215.625C287.972 217.642 287.098 219.403 285.777 220.909C284.47 222.401 282.78 223.565 280.706 224.403C278.646 225.227 276.267 225.639 273.568 225.639Z" fill="black"/>
</svg>
