<svg width="260" height="182" viewBox="0 0 260 182" fill="none" xmlns="http://www.w3.org/2000/svg">
<path d="M36.9336 129V169H29.6289L12.2266 143.824H11.9336V169H3.47656V129H10.8984L28.1641 154.156H28.5156V129H36.9336ZM57.4365 169.586C54.3506 169.586 51.6943 168.961 49.4678 167.711C47.2542 166.448 45.5485 164.664 44.3506 162.359C43.1527 160.042 42.5537 157.301 42.5537 154.137C42.5537 151.051 43.1527 148.342 44.3506 146.012C45.5485 143.681 47.2347 141.865 49.4092 140.562C51.5967 139.26 54.1618 138.609 57.1045 138.609C59.0837 138.609 60.9261 138.928 62.6318 139.566C64.3506 140.191 65.848 141.135 67.124 142.398C68.4131 143.661 69.4157 145.25 70.1318 147.164C70.848 149.065 71.2061 151.292 71.2061 153.844V156.129H45.874V150.973H63.374C63.374 149.775 63.1136 148.714 62.5928 147.789C62.0719 146.865 61.3493 146.142 60.4248 145.621C59.5133 145.087 58.4521 144.82 57.2412 144.82C55.9782 144.82 54.8584 145.113 53.8818 145.699C52.9183 146.272 52.1631 147.047 51.6162 148.023C51.0693 148.987 50.7894 150.061 50.7764 151.246V156.148C50.7764 157.633 51.0498 158.915 51.5967 159.996C52.1566 161.077 52.9443 161.91 53.96 162.496C54.9756 163.082 56.18 163.375 57.5732 163.375C58.4977 163.375 59.3441 163.245 60.1123 162.984C60.8805 162.724 61.5381 162.333 62.085 161.812C62.6318 161.292 63.0485 160.654 63.335 159.898L71.0303 160.406C70.6396 162.255 69.8389 163.87 68.6279 165.25C67.43 166.617 65.8805 167.685 63.9795 168.453C62.0915 169.208 59.9105 169.586 57.4365 169.586ZM85.1904 169.566C83.2764 169.566 81.5706 169.234 80.0732 168.57C78.5758 167.893 77.391 166.897 76.5186 165.582C75.6592 164.254 75.2295 162.6 75.2295 160.621C75.2295 158.954 75.5355 157.555 76.1475 156.422C76.7594 155.289 77.5928 154.378 78.6475 153.687C79.7021 152.997 80.9001 152.477 82.2412 152.125C83.5954 151.773 85.0146 151.526 86.499 151.383C88.2438 151.201 89.6501 151.031 90.7178 150.875C91.7855 150.706 92.5602 150.458 93.042 150.133C93.5238 149.807 93.7646 149.326 93.7646 148.687V148.57C93.7646 147.333 93.374 146.376 92.5928 145.699C91.8245 145.022 90.7308 144.684 89.3115 144.684C87.8141 144.684 86.6227 145.016 85.7373 145.68C84.8519 146.331 84.266 147.151 83.9795 148.141L76.2842 147.516C76.6748 145.693 77.443 144.117 78.5889 142.789C79.7347 141.448 81.2126 140.419 83.0225 139.703C84.8454 138.974 86.9548 138.609 89.3506 138.609C91.0173 138.609 92.6123 138.805 94.1357 139.195C95.6722 139.586 97.0329 140.191 98.2178 141.012C99.4157 141.832 100.36 142.887 101.05 144.176C101.74 145.452 102.085 146.982 102.085 148.766V169H94.1943V164.84H93.96C93.4782 165.777 92.8337 166.604 92.0264 167.32C91.2191 168.023 90.249 168.577 89.1162 168.98C87.9834 169.371 86.6748 169.566 85.1904 169.566ZM87.5732 163.824C88.7972 163.824 89.8779 163.583 90.8154 163.102C91.7529 162.607 92.4886 161.943 93.0225 161.109C93.5563 160.276 93.8232 159.332 93.8232 158.277V155.094C93.5628 155.263 93.2048 155.419 92.749 155.562C92.3063 155.693 91.805 155.816 91.2451 155.934C90.6852 156.038 90.1253 156.135 89.5654 156.227C89.0055 156.305 88.4977 156.376 88.042 156.441C87.0654 156.585 86.2126 156.812 85.4834 157.125C84.7542 157.437 84.1878 157.861 83.7842 158.395C83.3805 158.915 83.1787 159.566 83.1787 160.348C83.1787 161.48 83.5889 162.346 84.4092 162.945C85.2425 163.531 86.2972 163.824 87.5732 163.824ZM108.54 169V139H116.606V144.234H116.919C117.466 142.372 118.384 140.966 119.673 140.016C120.962 139.052 122.446 138.57 124.126 138.57C124.543 138.57 124.992 138.596 125.474 138.648C125.955 138.701 126.379 138.772 126.743 138.863V146.246C126.353 146.129 125.812 146.025 125.122 145.934C124.432 145.842 123.8 145.797 123.228 145.797C122.004 145.797 120.91 146.064 119.946 146.598C118.996 147.118 118.241 147.848 117.681 148.785C117.134 149.723 116.86 150.803 116.86 152.027V169H108.54ZM126.562 135.973V129H159.414V135.973H147.168V169H138.809V135.973H126.562ZM179.824 156.227V139H188.145V169H180.156V163.551H179.844C179.167 165.309 178.04 166.721 176.465 167.789C174.902 168.857 172.995 169.391 170.742 169.391C168.737 169.391 166.973 168.935 165.449 168.023C163.926 167.112 162.734 165.816 161.875 164.137C161.029 162.457 160.599 160.445 160.586 158.102V139H168.906V156.617C168.919 158.388 169.395 159.788 170.332 160.816C171.27 161.845 172.526 162.359 174.102 162.359C175.104 162.359 176.042 162.132 176.914 161.676C177.786 161.207 178.49 160.517 179.023 159.605C179.57 158.694 179.837 157.568 179.824 156.227ZM194.956 169V129H203.276V144.039H203.53C203.895 143.232 204.422 142.411 205.112 141.578C205.815 140.732 206.727 140.029 207.847 139.469C208.979 138.896 210.386 138.609 212.065 138.609C214.253 138.609 216.271 139.182 218.12 140.328C219.969 141.461 221.447 143.173 222.554 145.465C223.66 147.743 224.214 150.602 224.214 154.039C224.214 157.385 223.674 160.211 222.593 162.516C221.525 164.807 220.067 166.546 218.218 167.73C216.382 168.902 214.325 169.488 212.046 169.488C210.431 169.488 209.058 169.221 207.925 168.687C206.805 168.154 205.887 167.483 205.171 166.676C204.455 165.855 203.908 165.029 203.53 164.195H203.159V169H194.956ZM203.101 154C203.101 155.784 203.348 157.34 203.843 158.668C204.338 159.996 205.054 161.031 205.991 161.773C206.929 162.503 208.068 162.867 209.409 162.867C210.763 162.867 211.909 162.496 212.847 161.754C213.784 160.999 214.494 159.957 214.976 158.629C215.47 157.288 215.718 155.745 215.718 154C215.718 152.268 215.477 150.745 214.995 149.43C214.513 148.115 213.804 147.086 212.866 146.344C211.929 145.602 210.776 145.23 209.409 145.23C208.055 145.23 206.909 145.589 205.972 146.305C205.047 147.021 204.338 148.036 203.843 149.352C203.348 150.667 203.101 152.216 203.101 154ZM243.438 169.586C240.352 169.586 237.695 168.961 235.469 167.711C233.255 166.448 231.549 164.664 230.352 162.359C229.154 160.042 228.555 157.301 228.555 154.137C228.555 151.051 229.154 148.342 230.352 146.012C231.549 143.681 233.236 141.865 235.41 140.562C237.598 139.26 240.163 138.609 243.105 138.609C245.085 138.609 246.927 138.928 248.633 139.566C250.352 140.191 251.849 141.135 253.125 142.398C254.414 143.661 255.417 145.25 256.133 147.164C256.849 149.065 257.207 151.292 257.207 153.844V156.129H231.875V150.973H249.375C249.375 149.775 249.115 148.714 248.594 147.789C248.073 146.865 247.35 146.142 246.426 145.621C245.514 145.087 244.453 144.82 243.242 144.82C241.979 144.82 240.859 145.113 239.883 145.699C238.919 146.272 238.164 147.047 237.617 148.023C237.07 148.987 236.79 150.061 236.777 151.246V156.148C236.777 157.633 237.051 158.915 237.598 159.996C238.158 161.077 238.945 161.91 239.961 162.496C240.977 163.082 242.181 163.375 243.574 163.375C244.499 163.375 245.345 163.245 246.113 162.984C246.882 162.724 247.539 162.333 248.086 161.812C248.633 161.292 249.049 160.654 249.336 159.898L257.031 160.406C256.641 162.255 255.84 163.87 254.629 165.25C253.431 166.617 251.882 167.685 249.98 168.453C248.092 169.208 245.911 169.586 243.438 169.586Z" fill="black"/>
<path d="M140 14C140 19.5228 135.523 24 130 24C124.477 24 120 19.5228 120 14C120 8.47715 124.477 4 130 4C135.523 4 140 8.47715 140 14Z" stroke="#1C274C" stroke-width="6.56404"/>
<path d="M130 68.9984L133.256 67.1379C132.588 65.9699 131.345 65.2484 130 65.2484C128.654 65.2484 127.411 65.9699 126.744 67.1379L130 68.9984ZM99.0531 51.8024L109.93 55.4279L112.301 48.3129L101.425 44.6874L99.0531 51.8024ZM111.584 58.9339L105.35 75.1419L112.35 77.8344L118.584 61.6259L111.584 58.9339ZM158.575 44.6874L147.698 48.3129L150.07 55.4279L160.947 51.8024L158.575 44.6874ZM141.416 61.6259L147.65 77.8344L154.65 75.1419L148.416 58.9339L141.416 61.6259ZM125.377 84.6474L133.256 70.8589L126.744 67.1379L118.865 80.9264L125.377 84.6474ZM154.947 29.8177L145.459 31.8508L147.03 39.1843L156.518 37.1512L154.947 29.8177ZM114.541 31.8508L105.053 29.8177L103.482 37.1512L112.969 39.1843L114.541 31.8508ZM126.744 70.8589L134.623 84.6474L141.135 80.9264L133.256 67.1379L126.744 70.8589ZM145.459 31.8508C144.926 31.9649 144.678 32.0182 144.432 32.069L145.951 39.4135C146.229 39.3561 146.508 39.2963 147.03 39.1843L145.459 31.8508ZM112.969 39.1843C113.492 39.2963 113.771 39.3561 114.048 39.4135L115.568 32.069C115.322 32.0182 115.073 31.9649 114.541 31.8508L112.969 39.1843ZM144.432 32.069C134.911 34.0383 125.088 34.0383 115.568 32.069L114.048 39.4135C124.571 41.5902 135.428 41.5902 145.951 39.4135L144.432 32.069ZM115.725 90.2484C119.714 90.2484 123.397 88.1109 125.377 84.6474L118.865 80.9264C118.221 82.0534 117.023 82.7484 115.725 82.7484V90.2484ZM147.65 77.8344C148.561 80.2029 146.812 82.7484 144.274 82.7484V90.2484C152.076 90.2484 157.45 82.4229 154.65 75.1419L147.65 77.8344ZM147.698 48.3129C146.589 48.6829 145.408 49.0499 144.449 49.6414L148.388 56.0239C148.344 56.0509 148.381 56.0184 148.671 55.9089C148.975 55.7939 149.385 55.6564 150.07 55.4279L147.698 48.3129ZM148.416 58.9339C148.156 58.2594 148.002 57.8554 147.897 57.5474C147.798 57.2549 147.799 57.2054 147.806 57.2569L140.375 58.2729C140.528 59.3894 140.996 60.5344 141.416 61.6259L148.416 58.9339ZM144.449 49.6414C141.503 51.4599 139.907 54.8434 140.375 58.2729L147.806 57.2569C147.739 56.7669 147.967 56.2834 148.388 56.0239L144.449 49.6414ZM161.25 40.9762C161.25 42.66 160.172 44.1549 158.575 44.6874L160.947 51.8024C165.607 50.2494 168.75 45.8884 168.75 40.9762H161.25ZM105.35 75.1419C102.55 82.4229 107.924 90.2484 115.725 90.2484V82.7484C113.188 82.7484 111.439 80.2029 112.35 77.8344L105.35 75.1419ZM109.93 55.4279C110.615 55.6564 111.025 55.7939 111.329 55.9089C111.619 56.0184 111.656 56.0509 111.611 56.0239L115.551 49.6414C114.592 49.0499 113.411 48.6829 112.301 48.3129L109.93 55.4279ZM118.584 61.6259C119.004 60.5344 119.472 59.3894 119.624 58.2729L112.193 57.2569C112.2 57.2054 112.202 57.2544 112.103 57.5474C111.998 57.8554 111.843 58.2594 111.584 58.9339L118.584 61.6259ZM111.611 56.0239C112.032 56.2834 112.26 56.7669 112.193 57.2569L119.624 58.2729C120.093 54.8434 118.496 51.4599 115.551 49.6414L111.611 56.0239ZM91.25 40.9762C91.25 45.8884 94.3931 50.2494 99.0531 51.8024L101.425 44.6874C99.8274 44.1549 98.75 42.66 98.75 40.9762H91.25ZM98.75 40.9762C98.75 38.4858 101.046 36.6294 103.482 37.1512L105.053 29.8177C97.9489 28.2954 91.25 33.7109 91.25 40.9762H98.75ZM134.623 84.6474C136.602 88.1109 140.285 90.2484 144.274 90.2484V82.7484C142.977 82.7484 141.779 82.0534 141.135 80.9264L134.623 84.6474ZM168.75 40.9762C168.75 33.7109 162.051 28.2954 154.947 29.8177L156.518 37.1512C158.953 36.6294 161.25 38.4858 161.25 40.9762H168.75Z" fill="#1C274C"/>
<path d="M167.268 66.5C175.186 70.4805 180 75.7375 180 81.5C180 93.9265 157.614 104 130 104C102.386 104 80 93.9265 80 81.5C80 75.7375 84.8142 70.4805 92.7315 66.5" stroke="#1C274C" stroke-width="6.56404" stroke-linecap="round"/>
</svg>
